<?xml version="1.0" encoding="utf-8"?>
<!-- Generator: Adobe Illustrator 16.0.0, SVG Export Plug-In . SVG Version: 6.00 Build 0)  -->
<!DOCTYPE svg PUBLIC "-//W3C//DTD SVG 1.1//EN" "http://www.w3.org/Graphics/SVG/1.1/DTD/svg11.dtd">
<svg version="1.1" id="Layer_1" xmlns="http://www.w3.org/2000/svg" xmlns:xlink="http://www.w3.org/1999/xlink" x="0px" y="0px"
	 width="81px" height="52.125px" viewBox="0 0 81 52.125" style="enable-background:new 0 0 81 52.125;" xml:space="preserve">
<style type="text/css">
<![CDATA[
	.st0{fill:#F34949;}
	.st1{fill:#FFFFFF;}
]]>
</style>
<g>
	<path class="st1" d="M21.429,32.191c-0.164,0.164-0.697,0.164-0.984,0.451c-0.205,0-0.328,0-0.369-0.041l-0.082,0.123
		c-0.123,0.041-0.205,0.041-0.328,0.041c-0.041-0.041-0.082-0.041-0.123-0.041h-0.205c-0.328-0.369-1.599-0.656-2.952-1.313
		l-0.738-0.246c-0.615-0.205-1.886-0.819-3.731-1.765l-0.247-0.12c-0.861-0.369-1.886-0.861-3.075-1.395L7.734,27.6l-0.369,0.123
		c-0.861,0.532-1.476,1.065-2.624,1.271l-0.123,0.531v0.328c0,0.656-0.41,1.478-0.697,2.297v0.123c0,0.164-0.492,1.846-0.492,1.846
		v0.041c-0.369,0.613-0.41,0.777-0.943,1.64l-0.328,0.328c-0.041,0.041-0.205,0.041-0.451,0.041c-0.041,0-0.615-0.287-1.23-1.147
		l-0.082-0.082v-0.573c-0.041-0.041-0.082-0.082-0.123-0.205V32.48c0.041-0.123,0.041-0.246,0.041-0.41s0-0.328-0.041-0.492
		c0.164-0.492,0.246-1.436,0.328-2.296c0-0.041,0-0.041,0-0.082c0-0.287,0.123-0.82,0.328-1.558c0.574-2.052,0.246-1.56,0.615-2.954
		c0.574-2.131,0.738-3.279,1.64-6.231V18.21c0.041-0.082,0.123-0.205,0.205-0.369v-0.287c0-0.287,0.164-0.82,0.492-1.558
		c0.164-0.369,0-0.82,2.091-1.353c0.123,0.041,0.246,0.041,0.41,0.082h0.492c0.123-0.041,0.287-0.082,0.574-0.123
		c0.615-0.369,4.1-2.255,5.002-2.255c-0.041,0,1.886-0.41,2.378-0.41c0.574,0,1.189,0.123,1.968,0.41
		c-0.205-0.164,2.583,1.025,2.583,3.977c0,0.533-0.041,0.943-0.164,1.189v0.123c-0.697,1.722-0.287,1.148-5.002,4.387
		c0.123-0.082-2.624,1.353-2.624,1.804c0,0.082,0.041,0.123,0.082,0.123l-0.369,0.327c-0.205,0.041-0.287,0.287-0.287,0.697v0.205
		c-0.082,0-0.123,0.123-0.123,0.41L10.85,25.63c0,0.246,2.665,1.313,10.045,5.494c0.41,0.287,0.492,1.024,0.615,1.024
		c0,0,0,0,0-0.041L21.429,32.191z M15.073,15.299c0.205-0.205-2.132,0.615-2.788,0.615c-0.369,0.287-0.943,0.328-3.321,1.968
		c-0.328,0.205-0.779,1.107-1.722,3.116c-0.287,1.189-0.451,1.804-0.451,1.804c0.779-0.205,1.599-0.41,3.034-1.025
		c0.615-0.41,0.943,0.164,4.797-3.69c0.984-0.984,1.435-2.501,1.435-2.542C15.976,15.545,15.483,15.381,15.073,15.299z"/>
	<path class="st1" d="M27.045,28.542c-2.091,0-3.403-0.246-4.018-0.737c-1.025,1.68-1.558,2.992-1.558,3.896
		c0,0.245,0.205,0.614,0.574,1.147c0.738,1.024,0.779,1.024,2.255,1.188c0.205,0.123,0.656,0.614,1.845,0.614
		c0.861,0,2.173-0.368,3.854-1.147c1.845-0.86,3.362-2.173,3.608-2.173c0.123,0,0.205,0.041,0.287,0.082
		c-0.041,0.369-0.164,0.861-0.369,1.395c-0.205,0.205-3.526,4.633-8.364,4.633c-1.804,0-4.182-2.502-5.371-3.978
		c-1.353-1.722-1.722-4.551-1.722-5.616c0.164-0.328,0.328-0.943,0.533-1.805c0-0.451,0.492-0.082,0.861-1.641
		c0.738-0.45,0.205-0.901,1.517-1.967l0.738-0.615c0.41-0.533,1.066-1.271,2.009-2.214l1.271-0.697
		c0.451-0.205,0.697-0.533,0.779-0.943h0.328c0.164,0,0.697,0.574,0.902,0.615c1.845,0.287,2.829,0.451,2.87,0.451
		c1.804,0.451,4.346,2.46,4.346,3.977C34.221,28.009,27.661,28.542,27.045,28.542z M28.234,21.9l-1.189,0.738
		c-2.091,1.189-2.706,2.583-3.977,4.264c0.533,0.164,0.82,0.246,0.861,0.246c0.287,0,0.943-0.328,2.05-1.025
		c2.706-1.723,2.706-2.788,2.993-3.731C28.645,22.064,28.398,21.9,28.234,21.9z"/>
	<path class="st1" d="M44.921,22.064c-1.065,0.82-4.592,2.952-4.592,5.823c0,0.081,0.205,1.188,0.615,3.32l0.615,3.32
		c0,0.246-0.205,0.902-0.615,1.969c-0.902,2.378-1.189,1.927-1.476,1.927c-1.107,0-2.296,0.041-4.059-0.45
		c-0.615-1.024-2.46-0.779-3.362-3.566c-0.123-0.369-0.41-0.533-0.902-0.533c-0.451,0-3.28,2.747-4.592,2.993
		c0.123-0.451,0.369-1.066,0.738-1.847c0.697-1.105,5.002-3.237,5.33-3.36c2.05-1.601,4.223-3.034,5.248-4.88
		c0-0.532,0.041-1.354,0.082-2.542c0-0.286,0.451-1.517,1.353-3.607c0.492-1.148,0.779-2.132,0.82-2.952
		c0.492-0.369,1.229-0.984,2.214-1.804c-0.123-0.123,2.911,2.337,3.936,2.337c0.082,0,0.164,0,0.246,0v0.533
		C46.52,19.932,45.986,21.039,44.921,22.064z M38.976,32.355c0-0.697-0.369-1.97-1.107-3.813l-5.535,4.265
		c0.41,0.287,0.738,0.409,1.025,0.409c0.205,0,0.779-0.245,0.984-0.245c0.164,0,0.656,0.573,0.861,0.573
		c0.123,0,0.246-0.123,0.41-0.123c0.369,0,2.46,0.779,2.911,0.779c0.164,0,0.41-0.123,0.451-0.123V32.355z"/>
	<path class="st1" d="M57.098,20.629c0.041,0.123,0.164,0.164,0.328,0.164h0.246c0.123-0.041,0.205-0.041,0.246-0.041
		c-0.205,0.41-2.133,1.107-2.297,1.23c-0.368,0-0.205,0.656-1.641,0.984c-0.205,0.574-1.804,0.369-4.346,1.763
		c-0.328,0.861-0.492,1.354-1.681,3.567c0,0.287-0.205,0.779-0.656,1.476l-0.287,0.82c0,0.123-0.04,0.328-0.122,0.533
		c-0.369,0.615-1.148,2.87-1.395,3.034c-0.205,0.45-0.328,0.819-0.328,1.147c0.041,0.286,0.041,0.491,0.041,0.655
		s0,0.287-0.041,0.369c-0.205,0.205-0.656,2.255-1.682,3.444c-0.123-0.861-0.164-1.724-0.164-2.584
		c0.041-0.287,0.082-0.696,0.164-1.229c-0.082-0.082-0.164-0.205-0.245-0.41c0-0.327,0.204-1.065,0.204-1.394
		c-0.041-0.082-0.082-0.205-0.123-0.328c0-0.246,0.164-3.28,1.559-6.271c0.041-0.287,0.246-1.148,1.025-2.708
		c0-0.328-0.943-1.271-2.952-3.607c0.45-0.205,0.409-0.369,1.024-0.369c0.697,0,1.764,0.041,3.28,0.164
		c0.287-0.287,0.328-0.492,0.943-1.763c0-0.738,0.409-1.066,1.396-4.346c0.572-0.574,0.9-2.173,1.229-3.813h0.328h0.041
		c0.164,0,1.147-0.984,1.477-0.697c0.163,0,1.023,0.574,1.188,0.574c0.246,0,0.738,1.025,0.861,1.23l-0.287,0.41
		c-0.041,0.287-0.164,0.615-0.328,1.025c-1.147,2.173-1.64,4.141-2.664,6.478c0-0.041,0.041-0.041,0.041-0.041
		c0.041,0,0.082,0.123,0.164,0.369c0.573,0.082,1.105,0.123,1.64,0.123c1.805,0,2.583-0.205,5.043-0.861h0.287
		C58.573,19.85,57.262,20.465,57.098,20.629z"/>
	<path class="st1" d="M68.986,29.443c-0.696,3.199-2.459,4.552-8.404,7.586c-0.082,0.041-0.45,0.082-1.146,0.164
		c-0.779,0.9-1.846,1.353-3.281,1.353c-0.696,0-1.146-0.082-1.312-0.205l-1.518-1.271c-0.041,0-0.082,0-0.123,0
		c-1.681,0-1.599-2.665-1.804-2.952c0.123-0.205,0.205-0.369,0.205-0.492c0-0.164-0.246-0.41-0.246-0.532
		c0-0.492,0.246-1.764,0.246-2.256c0.205-0.041,1.023-0.328,1.023-0.861c0-0.164-0.204-0.9-0.204-1.023
		c1.065-0.902,1.065-1.271,2.501-3.567c0.655-1.025,5.985-6.313,6.561-6.313c0.164,0,0.533,0.123,0.697,0.123
		c0.204,0,0.573-0.369,1.105-1.148c0.123,0.041,0.41,0.287,0.861,0.656l1.229,0.287c0.327,0.164,0.819,0.369,1.476,0.615
		c2.707,0,3.035,3.321,3.035,6.068C69.891,27.025,69.604,28.255,68.986,29.443z M65.298,24.688c-0.164-0.041-0.327-0.164-0.45-0.287
		c0.082-0.123,0.123-0.246,0.123-0.45c0-0.492-0.328-1.312-0.779-1.312c-0.369,0-1.23,0.574-2.584,1.762
		c-3.238,2.83-4.51,4.716-5.985,6.602c-0.164,0.164-0.86,2.255-0.86,2.542c0,0.451,0.614,1.105,1.065,1.105
		c1.519,0,3.239-0.654,5.125-1.926c0.45-0.123,0.942-0.328,1.559-0.656c0.205-0.204,0.614-0.983,1.271-2.256
		c0.163-0.328,0.655-2.91,1.024-3.114c0-0.943,0.164-1.436,0.492-1.559L65.298,24.688L65.298,24.688z"/>
	<path class="st0" d="M72.309,30.551h0.205l0.082-0.082v-0.205l0.45-0.082l-0.164,0.369l0.164,0.205l0.04,0.082l0.082-0.082v-0.205
		h0.164l0.287,0.451l0.205-0.164l0.164,0.082l0.492,0.984l0.246-0.205l0.123,0.082l0.164,0.205l0.368,0.451l0.041,0.082
		l-0.041,0.287l0.123,0.286h-0.123v0.122h0.041l0.164,0.533l-0.082,0.656l0.082,0.285l-0.205-0.082v0.082l0.041,0.205l-0.491,0.287
		l-0.656,0.164l-0.369,0.492l-0.738-0.082h-0.122l-1.024-0.328l-1.025-0.656l-0.287-0.367l-0.368-0.082l0.081-0.123l-0.204-0.246
		v-0.287l-0.655-0.369l-0.451-0.204l0.082-0.245h0.082v-0.205l0.123-0.205l-0.082-0.287l0.164-0.164h0.205l-0.123-0.287l0.205-0.123
		l-0.164-0.533l0.164-0.041l0.287,0.041l0.082-0.041v-0.164l0.285-0.369l0.287-0.205l0.369-0.246L72.309,30.551z"/>
	<path class="st0" d="M77.721,30.551h0.204l0.082-0.082v-0.205l0.451-0.082l-0.164,0.369l0.164,0.205l0.04,0.082l0.082-0.082v-0.205
		h0.164l0.287,0.451l0.205-0.164L79.4,30.92l0.492,0.984l0.246-0.205l0.122,0.082l0.164,0.205l0.369,0.451l0.041,0.082l-0.041,0.287
		l0.123,0.286h-0.123v0.122h0.041L81,33.749l-0.082,0.656L81,34.691l-0.205-0.082v0.082l0.041,0.205l-0.492,0.287l-0.656,0.164
		l-0.369,0.491l-0.737-0.082h-0.122l-1.025-0.327l-1.024-0.656l-0.287-0.368l-0.368-0.082l0.081-0.123l-0.204-0.246v-0.287
		l-0.656-0.369l-0.451-0.204l0.082-0.246h0.082v-0.205l0.123-0.205l-0.082-0.287l0.164-0.164h0.205L74.975,31.7l0.205-0.123
		l-0.164-0.533l0.164-0.041l0.287,0.041l0.082-0.041v-0.164l0.286-0.368l0.287-0.205l0.369-0.246L77.721,30.551z"/>
</g>
</svg>
